{
  "asset": { "version": "2.0" },
  "buffers": [
    {
      "uri": "data:application/octet-stream;base64,",
      "byteLength": 48
    }
  ],
  "bufferViews": [
    { "buffer": 0, "byteOffset": 0, "byteLength": 36 },
    { "buffer": 0, "byteOffset": 36, "byteLength": 6 },
    { "buffer": 0, "byteOffset": 42, "byteLength": 6 }
  ],
  "accessors": [
    { "bufferView": 0, "componentType": 5126, "count": 3, "type": "VEC3", "min": [0.0, 0.0, 0.0], "max": [1.0, 1.0, 0.0] },
    { "bufferView": 1, "componentType": 5123, "count": 3, "type": "SCALAR" },
    { "bufferView": 2, "componentType": 5123, "count": 3, "type": "SCALAR" }
  ],
  "meshes": [
    {
      "name": "Mesh0",
      "primitives": [
        { "attributes": { "POSITION": 0 }, "indices": 1 }
      ]
    },
    {
      "name": "Mesh1",
      "primitives": [
        { "attributes": { "POSITION": 0 }, "indices": 1 },
        { "attributes": { "POSITION": 0 }, "indices": 2 }
      ]
    }
  ],
  "nodes": [ { "mesh": 0 }, { "mesh": 1 } ],
  "scenes": [ { "nodes": [0, 1] } ],
  "scene": 0
}
